<svg xmlns="http://www.w3.org/2000/svg"  viewBox="0 0 32 32" width="32px" height="32px"><path d="M 5 5 L 5 6 L 5 27 L 27 27 L 27 5 L 5 5 z M 7 7 L 25 7 L 25 25 L 7 25 L 7 7 z M 22 9.6738281 L 13 12.246094 L 13 17.050781 C 12.838398 17.017983 12.6713 17 12.5 17 C 11.119 17 10 18.119 10 19.5 C 10 20.881 11.119 22 12.5 22 C 13.881 22 15 20.881 15 19.5 L 15 13.753906 L 20 12.326172 L 20 15.050781 C 19.838398 15.017983 19.6713 15 19.5 15 C 18.119 15 17 16.119 17 17.5 C 17 18.881 18.119 20 19.5 20 C 20.881 20 22 18.881 22 17.5 L 22 9.6738281 z"/></svg>